<?xml version="1.0" encoding="utf-8"?><svg xmlns="http://www.w3.org/2000/svg" xmlns:xlink="http://www.w3.org/1999/xlink" width="1424" height="1102" preserveAspectRatio="xMidYMid" viewBox="0 0 1424 1102" style="z-index:1;margin-right:-2px;display:block;background-repeat-y:initial;background-repeat-x:initial;background-color:rgb(255, 255, 255);animation-play-state:paused" ><g transform="translate(712,551) scale(1,1) translate(-712,-551)" style="transform:matrix(1, 0, 0, 1, 0, 0);animation-play-state:paused" ><g transform="translate(1381.9071074954086,309.81860078535254) scale(100)" opacity="0.4" style="transform:matrix(100, 0, 0, 100, 1381.91, 309.819);opacity:0.4;animation-play-state:paused" ><path d="M6.550400000000001 0 C6.550400000000001 1.0680000000000003 7.512969958964707 1.9559791807925402 7.104264053198791 2.9426825215145946 S5.387022301791594 3.876642217177128 4.631832259484361 4.631832259484361 S3.9293858622366495 6.695558147432875 2.942682521514595 7.104264053198791 S1.0680000000000007 6.550400000000001 4.0109631965674115e-16 6.550400000000001 S-1.9559791807925397 7.512969958964707 -2.942682521514594 7.104264053198791 S-3.876642217177128 5.387022301791594 -4.631832259484361 4.631832259484361 S-6.695558147432875 3.92938586223665 -7.104264053198791 2.9426825215145955 S-6.550400000000001 1.0680000000000012 -6.550400000000001 8.021926393134823e-16 S-7.512969958964708 -1.9559791807925393 -7.104264053198792 -2.9426825215145938 S-5.387022301791595 -3.876642217177128 -4.631832259484362 -4.631832259484361 S-3.9293858622366526 -6.695558147432872 -2.9426825215145986 -7.104264053198789 S-1.0680000000000014 -6.550400000000001 -1.2032889589702234e-15 -6.550400000000001 S1.955979180792542 -7.512969958964706 2.9426825215145964 -7.10426405319879 S3.8766422171771273 -5.387022301791595 4.63183225948436 -4.631832259484362 S6.695558147432872 -3.9293858622366535 7.104264053198789 -2.942682521514599 S6.550400000000001 -1.0680000000000018 6.550400000000001 -1.6043852786269646e-15" fill="#ffebcd" stroke-width="0" transform="matrix(1,0,0,1,0,0)" style="transform:matrix(1, 0, 0, 1, 0, 0);animation-play-state:paused" ></path></g></g></svg>